<?xml version="1.0" encoding="utf-8"?>
<svg viewBox="117.537 173.877 38.531 34.964" xmlns="http://www.w3.org/2000/svg">
  <path d="M 133.897 174.107 C 133.897 174.107 140.953 173.146 146.724 175.156 C 152.515 177.274 155.503 182.94 155.948 186.22 C 156.369 189.463 155.937 196.024 150.419 201.52 C 140.93 209.839 134.551 208.842 133.915 208.767 C 133.566 208.761 130.753 208.767 127.256 207.447 C 123.784 206.136 119.904 203.375 118.548 198.068 C 115.741 186.523 119.67 181.786 119.67 181.786 C 124.726 175.229 133.897 174.107 133.897 174.107 Z M 120.468 182.39 C 120.468 182.39 116.604 186.727 119.518 197.826 C 120.673 202.841 124.25 205.243 127.609 206.511 C 130.941 207.769 133.948 207.767 133.948 207.767 L 133.991 207.767 L 134.03 207.774 C 134.03 207.774 140.676 208.972 149.746 200.78 C 155.106 195.617 155.373 189.501 154.956 186.35 C 154.563 183.234 151.905 177.975 146.39 176.098 C 140.855 174.112 134.035 175.097 134.035 175.097 C 134.035 175.097 125.182 176.027 120.468 182.39 Z" style="fill: rgb(255, 255, 255);"/>
</svg>